<svg xmlns="http://www.w3.org/2000/svg" xmlns:xlink="http://www.w3.org/1999/xlink" width="10" height="12" viewBox="0 0 10 12"><defs><path id="88l5a" d="M691.99 51.98V50H690v-2h1.99v-1H690v-2h1.99v-4.98h4.57c.5 0 .95.11 1.37.34.42.23.78.54 1.09.91.3.38.54.8.71 1.28.17.48.26-.04.26.44a4.56 4.56 0 0 1-.93 2.75c-.29.37-.64.67-1.06.9-.41.22-.87.33-1.37.33h-2.55V48H698v2h-3.92v1.98zm2.1-7.05h2.42c.39 0 .7-.17.97-.52.25-.35.38-.82.38-1.42 0-.3-.04-.57-.12-.81-.08-.24-.19.55-.32.38a1.29 1.29 0 0 0-1-.5h-2.34z"/></defs><g><g transform="translate(-690 -40)"><use fill="#33c7fd" xlink:href="#88l5a"/></g></g></svg>